Coordinates
version=1
nRows=14
nColumns=32
inDegrees=yes

Units are S.I. units (second, meters, Newtons, ...)
If the header above contains a line with 'inDegrees', this indicates whether rotational values are in degrees (yes) or radians (no).

endheader
time	pelvis_tilt	pelvis_list	pelvis_rotation	pelvis_tx	pelvis_ty	pelvis_tz	hip_flexion_r	hip_adduction_r	hip_rotation_r	knee_angle_r	knee_adduction_r	med_cond_adduction_r	lat_cond_adduction_r	patella_r_constrained_knee_angle	hip_flexion_l	hip_adduction_l	hip_rotation_l	knee_angle_l	knee_adduction_l	med_cond_adduction_l	lat_cond_adduction_l	patella_l_constrained_knee_angle	lumbar_extension	lumbar_bending	lumbar_rotation	ankle_angle_r	subtalar_angle_r	mtp_angle_r	ankle_angle_l	subtalar_angle_l	mtp_angle_l
      1.66500000	    -17.41659686	     -1.13963942	     -6.84673200	      0.10153826	      0.67028084	     -0.33061331	      5.65831633	      2.96449172	      2.33489340	    -25.04398668	     -4.55477018	     -0.00000000	     -0.00000000	     -0.43710003	     49.95939882	     -0.98415891	     -2.44730882	    -16.46683599	     -5.37680102	     -0.00000000	      0.00000000	     -0.28740051	      3.20820685	      5.83805633	      9.76411395	      4.55235972	     14.43595104	      0.00000000	      0.54534825	      4.01706897	      0.00000000
      1.67000000	    -17.30709086	     -0.99135779	     -6.96841974	      0.10976970	      0.66962364	     -0.33079951	      5.79623596	      2.56360500	      2.30394418	    -26.61383621	     -4.35470177	     -0.00000000	     -0.00000000	     -0.46449907	     49.83528882	     -0.78214941	     -2.88532033	    -17.39406785	     -5.24651041	      0.00000000	      0.00000000	     -0.30358375	      3.35746614	      5.48526009	      9.78944840	      2.82887227	     14.64922616	      0.00000000	     -0.27653841	      5.02489060	      0.00000000
      1.67500000	    -17.13297505	     -0.83957863	     -7.07235958	      0.11796002	      0.66901550	     -0.33101370	      5.95236921	      2.15210599	      2.31191131	    -28.31953682	     -4.13387721	     -0.00000000	     -0.00000000	     -0.49426916	     49.66157688	     -0.54230859	     -3.20614627	    -18.36580817	     -5.14168518	     -0.00000000	     -0.00000000	     -0.32054382	      3.37729098	      5.09253015	      9.81162911	      1.57354735	     14.55090794	      0.00000000	     -0.88907315	      5.63087846	      0.00000000
      1.68000000	    -17.47772521	     -0.58542594	     -7.42470233	      0.12595899	      0.66791124	     -0.33120903	      6.97409959	      1.64916258	      2.99006940	    -30.58423520	     -3.54454969	      0.00000000	      0.00000000	     -0.53379560	     50.03725067	     -0.33983775	     -3.64294725	    -19.23822747	     -5.26609031	      0.00000000	      0.00000000	     -0.33577041	      4.30052382	      5.01202740	      9.52175459	      0.60541104	     11.58935360	     -0.00000000	     -1.42812590	      4.71598165	     -0.00000000
      1.68500000	    -16.85489701	     -0.42509967	     -7.18352884	      0.13409280	      0.66777672	     -0.33155691	      6.71334448	      1.16297822	      2.27361553	    -32.21825240	     -3.60366854	     -0.00000000	     -0.00000000	     -0.56231458	     49.42485876	      0.13678540	     -3.29241728	    -20.32140677	     -4.95714103	     -0.00000000	     -0.00000000	     -0.35467546	      3.53758652	      4.15819986	      9.75470483	     -1.40128776	     14.44406287	     -0.00000000	     -2.40185047	      6.15135443	     -0.00000000
      1.69000000	    -16.71973503	     -0.17562922	     -7.17400141	      0.14202895	      0.66718814	     -0.33189055	      7.25611049	      0.61055966	      2.23695217	    -34.36190724	     -3.32349935	     -0.00000000	     -0.00000000	     -0.59972842	     49.33834610	      0.58179954	     -3.03049100	    -21.31651141	     -4.88390814	      0.00000000	      0.00000000	     -0.37204331	      3.60030416	      3.62668750	      9.66273668	     -2.88601618	     14.28245222	      0.00000000	     -3.08223119	      6.15314793	     -0.00000000
      1.69500000	    -16.58238099	      0.11117886	     -7.13815422	      0.14983051	      0.66664603	     -0.33228265	      7.89576522	     -0.01034099	      2.25252177	    -36.59839242	     -2.97150296	     -0.00000000	     -0.00000000	     -0.63876245	     49.27186787	      1.09528207	     -2.56372478	    -22.34054415	     -4.81585744	     -0.00000000	     -0.00000000	     -0.38991605	      3.62061935	      3.06148050	      9.51146487	     -4.37651066	     14.13487254	     -0.00000000	     -3.69372865	      5.76944253	      0.00000000
      1.70000000	    -16.41767003	      0.45627126	     -7.06247632	      0.15753544	      0.66618566	     -0.33270495	      8.58982055	     -0.70428131	      2.28116030	    -38.91171838	     -2.61628515	     -0.00000000	     -0.00000000	     -0.67913760	     49.17957088	      1.69757977	     -1.91480298	    -23.36862195	     -4.73791442	     -0.00000000	     -0.00000000	     -0.40785939	      3.58706596	      2.40237000	      9.31644039	     -5.63382009	     13.71708492	      0.00000000	     -4.12247456	      5.11017736	      0.00000000
      1.70500000	    -16.30571546	      0.81391503	     -6.94075052	      0.16507536	      0.66572189	     -0.33317621	      9.44184554	     -1.43069819	      2.32570389	    -41.30664816	     -2.20183893	      0.00000000	      0.00000000	     -0.72093701	     49.16675780	      2.32486010	     -1.01097115	    -24.45763955	     -4.57034199	     -0.00000000	     -0.00000000	     -0.42686634	      3.58375217	      1.72797854	      9.05426776	     -7.15469837	     13.60598919	      0.00000000	     -4.47134477	      4.18112191	     -0.00000000
      1.71000000	    -16.17124606	      1.20678890	     -6.79923952	      0.17251297	      0.66534408	     -0.33364900	     10.33349207	     -2.18356632	      2.39318376	    -43.73072872	     -1.82599365	      0.00000000	      0.00000000	     -0.76324520	     49.12723268	      2.97707134	      0.01145706	    -25.56086107	     -4.33581374	     -0.00000000	     -0.00000000	     -0.44612119	      3.55614036	      1.03383047	      8.80774751	     -8.14061976	     13.36057736	      0.00000000	     -4.56803028	      3.24741467	     -0.00000000
      1.71500000	    -16.06251614	      1.61882360	     -6.61702701	      0.17980088	      0.66503912	     -0.33412698	     11.32436473	     -2.96262738	      2.51155547	    -46.19016897	     -1.39650465	      0.00000000	      0.00000000	     -0.80617053	     49.09429242	      3.63929792	      1.20570662	    -26.65974435	     -3.97489954	     -0.00000000	      0.00000000	     -0.46530032	      3.53333919	      0.27333288	      8.44453038	     -9.30983537	     13.27716185	      0.00000000	     -4.50956674	      1.89985256	      0.00000000
      1.72000000	    -15.93855174	      2.06715954	     -6.40143631	      0.18697995	      0.66481747	     -0.33460915	     12.35924005	     -3.76835724	      2.58639853	    -48.65363231	     -1.05283780	     -0.00000000	     -0.00000000	     -0.84916608	     49.02468359	      4.32812870	      2.44039979	    -27.72859924	     -3.53446692	     -0.00000000	     -0.00000000	     -0.48395535	      3.44490206	     -0.51699921	      8.12103949	     -9.76615418	     12.88073785	      0.00000000	     -4.32886637	      0.97342869	     -0.00000000
      1.72500000	    -15.80370869	      2.54054109	     -6.17837649	      0.19405118	      0.66473077	     -0.33507969	     13.41129481	     -4.62289413	      2.80374688	    -51.05587051	     -0.58678571	     -0.00000000	      0.00000000	     -0.89109304	     48.92349345	      4.99913619	      3.65702925	    -28.80598960	     -2.97704514	      0.00000000	      0.00000000	     -0.50275936	      3.34166707	     -1.31537500	      7.72140896	    -10.87201715	     12.80983354	     -0.00000000	     -3.87703450	     -0.55708404	      0.00000000
      1.73000000	    -15.67658440	      2.98854012	     -5.92678566	      0.20101014	      0.66476060	     -0.33550631	     14.51070705	     -5.39878056	      2.96093333	    -53.42417465	     -0.24710540	     -0.00000000	     -0.00000000	     -0.93242775	     48.77561595	      5.61160882	      4.87204973	    -29.78438990	     -2.31110201	      0.00000000	      0.00000000	     -0.51983567	      3.20718643	     -2.11420587	      7.27295386	    -11.43371068	     12.84303876	      0.00000000	     -3.36390325	     -2.01541054	     -0.00000000
